<?xml version="1.0" encoding="UTF-8"?>
<svg id="_레이어_1" data-name="레이어_1" xmlns="http://www.w3.org/2000/svg" version="1.1" viewBox="0 0 100 100">
  <!-- Generator: Adobe Illustrator 30.1.0, SVG Export Plug-In . SVG Version: 2.1.1 Build 136)  -->
  <defs>
    <style>
      .st0 {
        fill: none;
        stroke-width: 3px;
      }

      .st0, .st1 {
        stroke: #61408f;
        stroke-miterlimit: 10;
      }

      .st1 {
        fill: #61408f;
      }
    </style>
  </defs>
  <circle class="st0" cx="49.75" cy="50.1" r="45.87"/>
  <path class="st0" d="M15.3,31.8c2.38,1.34,19.09,10.15,21.65,11.72.05.08-.01.15-.17.25-1.5.84-3.01,1.62-5.04,2.73-4.92,2.65-11.89,6.39-16.44,8.84"/>
  <path class="st1" d="M48.71,60.82h-23.47c0,11.44,10.41,20.71,23.26,20.71.07,0,.14,0,.21,0v-20.71Z"/>
  <path class="st0" d="M83.85,31.8c-2.38,1.34-19.09,10.15-21.65,11.72-.05.08.01.15.17.25,1.5.84,3.01,1.62,5.04,2.73,4.92,2.65,11.89,6.39,16.44,8.84"/>
  <path class="st1" d="M49.54,60.82h23.47c0,11.44-10.41,20.71-23.26,20.71-.07,0-.14,0-.21,0v-20.71Z"/>
</svg>