<?xml version="1.0" encoding="UTF-8"?>
<svg id="_레이어_1" data-name="레이어_1" xmlns="http://www.w3.org/2000/svg" version="1.1" viewBox="0 0 100 100">
  <!-- Generator: Adobe Illustrator 30.1.0, SVG Export Plug-In . SVG Version: 2.1.1 Build 136)  -->
  <defs>
    <style>
      .st0 {
        fill: none;
        stroke: #d81618;
        stroke-miterlimit: 10;
        stroke-width: 3px;
      }
    </style>
  </defs>
  <path class="st0" d="M50.54,4.24c-18.72.4-35.73,12.57-42.13,30.17-6.49,17.82-1.05,38.31,13.37,50.61,8,6.82,18.25,10.72,28.76,10.94"/>
  <circle class="st0" cx="32.48" cy="46.84" r="8.07"/>
  <path class="st0" d="M28.06,28.35c.82,2.53,4.23,3.7,7.63,2.61s5.49-4.03,4.68-6.57"/>
  <path class="st0" d="M50.54,95.96c10.51-.22,20.76-4.12,28.76-10.94,14.42-12.3,19.86-32.79,13.37-50.61-6.4-17.6-23.41-29.77-42.13-30.17"/>
  <circle class="st0" cx="68.6" cy="46.84" r="8.07"/>
  <path class="st0" d="M73.02,28.35c-.82,2.53-4.23,3.7-7.63,2.61-3.4-1.09-5.49-4.03-4.68-6.57"/>
  <path class="st0" d="M40.45,68.38c0-5.5,4.46-9.96,9.96-9.96s9.96,4.46,9.96,9.96"/>
</svg>