<svg width="24" height="24" viewBox="0 0 24 24" fill="none" xmlns="http://www.w3.org/2000/svg">
<path d="M3.9978 19.4896V4.49768C3.9978 3.83499 4.26105 3.19945 4.72964 2.73086C5.19823 2.26227 5.83377 1.99902 6.49646 1.99902H18.9897C19.2548 1.99902 19.509 2.10432 19.6965 2.29176C19.8839 2.47919 19.9892 2.73341 19.9892 2.99849V20.9888C19.9892 21.2539 19.8839 21.5081 19.6965 21.6955C19.509 21.883 19.2548 21.9883 18.9897 21.9883H6.49646C5.83377 21.9883 5.19823 21.725 4.72964 21.2564C4.26105 20.7878 3.9978 20.1523 3.9978 19.4896ZM3.9978 19.4896C3.9978 18.8269 4.26105 18.1914 4.72964 17.7228C5.19823 17.2542 5.83377 16.991 6.49646 16.991H19.9892" stroke="currentColor" stroke-width="1.99892" stroke-linecap="round" stroke-linejoin="round"/>
<path d="M8.61535 9.79468C8.40508 9.57546 8.24141 9.31591 8.1342 9.03169C8.027 8.74747 7.97849 8.44449 7.9916 8.14101C8.0047 7.83753 8.07916 7.53985 8.21047 7.26594C8.34178 6.99202 8.52723 6.74755 8.75561 6.54727C8.984 6.347 9.25059 6.19507 9.53931 6.10065C9.82802 6.00623 10.1329 5.97128 10.4355 5.99792C10.7381 6.02455 11.0321 6.11222 11.2999 6.25562C11.5677 6.39902 11.8036 6.59518 11.9935 6.83228C12.1843 6.59766 12.4205 6.40393 12.6879 6.26269C12.9553 6.12145 13.2484 6.03559 13.5498 6.01025C13.8511 5.98491 14.1545 6.02061 14.4417 6.11522C14.729 6.20982 14.9942 6.36139 15.2215 6.56085C15.4488 6.76031 15.6335 7.00357 15.7646 7.27608C15.8957 7.54858 15.9706 7.84473 15.9846 8.14682C15.9986 8.4489 15.9516 8.75071 15.8463 9.0342C15.741 9.31768 15.5796 9.57701 15.3717 9.79668L12.7471 12.6511C12.6535 12.759 12.5378 12.8454 12.4079 12.9047C12.278 12.9639 12.1368 12.9946 11.994 12.9946C11.8512 12.9946 11.7101 12.9639 11.5802 12.9047C11.4503 12.8454 11.3346 12.759 11.2409 12.6511L8.61535 9.79468Z" stroke="currentColor" stroke-width="1.99892" stroke-linecap="round" stroke-linejoin="round"/>
</svg>
