<svg width="24" height="24" viewBox="0 0 24 24" fill="none" xmlns="http://www.w3.org/2000/svg">
<path d="M1.99892 9.49488C1.99894 8.38268 2.33633 7.29664 2.96653 6.38022C3.59673 5.46379 4.49009 4.76008 5.52863 4.36204C6.56716 3.96399 7.702 3.89034 8.78328 4.1508C9.86455 4.41126 10.8414 4.99358 11.5848 5.82085C11.6371 5.87684 11.7004 5.92147 11.7707 5.95198C11.841 5.9825 11.9169 5.99824 11.9935 5.99824C12.0702 5.99824 12.146 5.9825 12.2163 5.95198C12.2867 5.92147 12.35 5.87684 12.4023 5.82085C13.1434 4.9882 14.1204 4.40098 15.2034 4.13736C16.2865 3.87374 17.4241 3.94621 18.4649 4.34513C19.5058 4.74405 20.4004 5.4505 21.0298 6.37046C21.6592 7.29041 21.9935 8.38024 21.9882 9.49488C21.9882 11.7836 20.489 13.4927 18.9898 14.9919L13.5007 20.3021C13.3145 20.516 13.0849 20.6878 12.8271 20.8061C12.5694 20.9244 12.2894 20.9865 12.0058 20.9883C11.7222 20.9901 11.4415 20.9316 11.1823 20.8165C10.923 20.7015 10.6913 20.5326 10.5023 20.321L4.9973 14.9919C3.49811 13.4927 1.99892 11.7936 1.99892 9.49488Z" stroke="#E60076" stroke-width="1.99892" stroke-linecap="round" stroke-linejoin="round"/>
</svg>
