<svg width="24" height="24" viewBox="0 0 24 24" fill="none" xmlns="http://www.w3.org/2000/svg">
<path d="M11.0111 2.81254C11.0539 2.58326 11.1756 2.37619 11.355 2.22717C11.5344 2.07815 11.7603 1.99658 11.9936 1.99658C12.2268 1.99658 12.4527 2.07815 12.6321 2.22717C12.8115 2.37619 12.9332 2.58326 12.976 2.81254L14.0265 8.36755C14.1011 8.76248 14.293 9.12576 14.5772 9.40996C14.8614 9.69416 15.2247 9.88608 15.6196 9.96069L21.1746 11.0111C21.4039 11.0539 21.611 11.1756 21.76 11.355C21.909 11.5345 21.9906 11.7604 21.9906 11.9936C21.9906 12.2268 21.909 12.4527 21.76 12.6322C21.611 12.8116 21.4039 12.9332 21.1746 12.9761L15.6196 14.0265C15.2247 14.1011 14.8614 14.293 14.5772 14.5772C14.293 14.8614 14.1011 15.2247 14.0265 15.6196L12.976 21.1747C12.9332 21.4039 12.8115 21.611 12.6321 21.76C12.4527 21.909 12.2268 21.9906 11.9936 21.9906C11.7603 21.9906 11.5344 21.909 11.355 21.76C11.1756 21.611 11.0539 21.4039 11.0111 21.1747L9.96064 15.6196C9.88604 15.2247 9.69411 14.8614 9.40991 14.5772C9.12571 14.293 8.76244 14.1011 8.3675 14.0265L2.81249 12.9761C2.58322 12.9332 2.37614 12.8116 2.22713 12.6322C2.07811 12.4527 1.99654 12.2268 1.99654 11.9936C1.99654 11.7604 2.07811 11.5345 2.22713 11.355C2.37614 11.1756 2.58322 11.0539 2.81249 11.0111L8.3675 9.96069C8.76244 9.88608 9.12571 9.69416 9.40991 9.40996C9.69411 9.12576 9.88604 8.76248 9.96064 8.36755L11.0111 2.81254Z" stroke="#9810FA" stroke-width="1.99892" stroke-linecap="round" stroke-linejoin="round"/>
<path d="M19.9892 1.99902V5.99687" stroke="#9810FA" stroke-width="1.99892" stroke-linecap="round" stroke-linejoin="round"/>
<path d="M21.9882 3.9978H17.9903" stroke="#9810FA" stroke-width="1.99892" stroke-linecap="round" stroke-linejoin="round"/>
<path d="M3.99784 21.9881C5.10182 21.9881 5.99676 21.0931 5.99676 19.9892C5.99676 18.8852 5.10182 17.9902 3.99784 17.9902C2.89387 17.9902 1.99892 18.8852 1.99892 19.9892C1.99892 21.0931 2.89387 21.9881 3.99784 21.9881Z" stroke="#9810FA" stroke-width="1.99892" stroke-linecap="round" stroke-linejoin="round"/>
</svg>
