<svg width="24" height="24" viewBox="0 0 24 24" fill="none" xmlns="http://www.w3.org/2000/svg">
<path d="M15.9914 20.9887V18.9898C15.9914 17.9295 15.5702 16.9126 14.8204 16.1629C14.0707 15.4131 13.0538 14.9919 11.9935 14.9919H5.99675C4.93645 14.9919 3.91959 15.4131 3.16984 16.1629C2.4201 16.9126 1.9989 17.9295 1.9989 18.9898V20.9887" stroke="currentColor" stroke-width="1.99892" stroke-linecap="round" stroke-linejoin="round"/>
<path d="M15.9914 3.12634C16.8487 3.34859 17.6079 3.84922 18.1499 4.54964C18.6919 5.25006 18.986 6.11063 18.986 6.99626C18.986 7.88189 18.6919 8.74246 18.1499 9.44288C17.6079 10.1433 16.8487 10.6439 15.9914 10.8662" stroke="currentColor" stroke-width="1.99892" stroke-linecap="round" stroke-linejoin="round"/>
<path d="M21.9882 20.9887V18.9897C21.9875 18.1039 21.6927 17.2435 21.15 16.5434C20.6073 15.8433 19.8475 15.3433 18.9898 15.1218" stroke="currentColor" stroke-width="1.99892" stroke-linecap="round" stroke-linejoin="round"/>
<path d="M8.99516 10.9941C11.2031 10.9941 12.993 9.20421 12.993 6.99626C12.993 4.78831 11.2031 2.99841 8.99516 2.99841C6.78721 2.99841 4.99731 4.78831 4.99731 6.99626C4.99731 9.20421 6.78721 10.9941 8.99516 10.9941Z" stroke="currentColor" stroke-width="1.99892" stroke-linecap="round" stroke-linejoin="round"/>
</svg>
